<svg id="图层_1" data-name="图层 1" xmlns="http://www.w3.org/2000/svg" viewBox="0 0 207.27 65.91"><title>fenfujun</title><path d="M40.55,19.08c.42.21.63.35.63.56s-.28.28-.85.42a4.62,4.62,0,0,0-3.16,2C29.3,34.39,21.5,44,10.89,51.19l-.56-.92c10.47-8.78,20-22.41,24.31-34.08Zm20.16,26c.35.28.56.5.56.64s-.21.35-.56.63L58.32,48A142.84,142.84,0,0,1,57,68.33c-.7,5.83-2.39,8.36-7.24,11a1.78,1.78,0,0,1-.49.14c-.21,0-.35-.14-.42-.56-.71-3-1.69-4.21-9.77-6.46l.42-1a45.37,45.37,0,0,0,8.85,1.34c3.66,0,5-1.48,5.49-5.34a159.83,159.83,0,0,0,1-20.73H38.37c-1.69,19.89-7,27.05-25.65,34.15l-.35-1C31,71.21,33.8,61.8,34.64,46.76h-7.8a14.38,14.38,0,0,0-4.7.77l-2-2.6c1.75.14,3.51.28,5.13.28h28l2.81-4.07ZM53.26,19.43C55,30.74,64.08,42,76.38,45.28l-.14.71c-3.79-.14-6,.63-7.1,2-.14.14-.28.28-.42.28s-.21-.14-.42-.28c-11-9.21-15.11-17.36-18.69-33l5.2,1.69c.49.14.77.28.77.49s-.21.35-.56.7Z" transform="translate(-10.33 -15)"/><path d="M106,18.51c.63.43.91.78.91,1s-.35.35-1,.42a3.08,3.08,0,0,0-2.81,1.9c-2,3.58-4.36,7.65-7,11.87l2.81,1.2c.42.14.56.28.56.49s-.14.28-.56.56L97,37.34V66.51c0,4.35.07,7.94.28,11.1v.63c0,.91-.21,1.19-1.61,1.76a4.06,4.06,0,0,1-1.48.42c-.49,0-.63-.42-.63-1.62v-.63c.14-4.15.21-8.15.21-11.81V37.13A141.57,141.57,0,0,1,81,53.44l-.91-.64c8.36-11.59,17.71-26.63,21.22-37.66Zm40.19,16.87c.42.42.7.7.7.91s-.35.35-1,.35H133.71v36c0,4.36-.42,5.55-5.76,7.87a1.61,1.61,0,0,1-.63.21c-.28,0-.35-.21-.42-.63-.43-3.31-1.41-4-9.84-6.82l.28-1c6,1.4,9.2,2,10.89,2,1.9,0,2-.7,2-1.89V36.64H108.84a14.14,14.14,0,0,0-4.71.78l-2-2.61c1.76.15,3.52.29,5.13.29h23V25.75c0-2.88-.14-7.66-.28-10.26l5.48,2.88c.49.28.7.42.7.63s-.21.36-.63.64l-1.83,1.19V35.1h4.85L141.51,31ZM108.63,44.3c7.8,4.43,10.89,7.52,11.31,9.7a7,7,0,0,1,.14,1.12c0,2.46-1.48,4.08-2.6,4.08-.91,0-1.33-.56-1.76-2.6-.49-2.46-3.79-8.5-7.66-11.39Z" transform="translate(-10.33 -15)"/><path d="M216.9,32.22c.49.49.7.77.7,1.05s-.35.35-1,.35H204.67v5.06c0,1.33.35,8.08.35,8.5,0,.92-.28,1.2-1.75,2a3.07,3.07,0,0,1-1.41.56c-.42,0-.49-.35-.49-1.05V45.28H174a47.54,47.54,0,0,1-2.95,7.52l3.51,2.46h27.26l1.9-3.23,4.71,3.09c.42.21.56.42.56.63s-.14.36-.56.64l-2.25,1.4v9.14a90.67,90.67,0,0,0,.35,9.34c0,.21.07.42.07.63,0,.78-.35,1.06-1.83,1.76a4.4,4.4,0,0,1-1.47.56c-.35,0-.42-.35-.42-1V73.11h-29v4.71c0,.84-.14,1.05-1.55,1.76a3,3,0,0,1-1.4.49c-.43,0-.57-.35-.57-1.27,0-.28.07-.63.07-1,.14-3.16.21-5.76.21-9.77V59.69c0-1.34-.07-3.79-.14-5.83-3.93,7.23-10.18,13.63-19.53,20.3l-.77-.91c10.47-9,17-16.65,20.37-28h-8.92a14.44,14.44,0,0,0-4.71.78l-2-2.6c1.75.14,3.51.28,5.12.28H171a86.31,86.31,0,0,0,2-10.12H159.21a14.49,14.49,0,0,0-4.71.77l-2-2.6c1.75.14,3.51.28,5.13.28h15.59c.5-3.51.71-7.23.92-11.38h-11.1a14.4,14.4,0,0,0-4.71.77l-2-2.6c1.76.14,3.51.29,5.13.29h38.72l2.25-3.45,4.7,3.45c.49.28.71.49.71.7s-.22.28-.71.56l-2.53,1.34V32.07h5.13l2.74-4.21Zm-14,39.34V56.81h-29V71.56Zm-1.55-27.82V33.62H176.43a91.85,91.85,0,0,1-2,10.12Zm0-11.67V20.69H177.69q-.31,6.22-1.05,11.38Z" transform="translate(-10.33 -15)"/></svg>