<svg xmlns="http://www.w3.org/2000/svg"
     viewBox="0 0 83.15 11.29"><title>资源 1</title><g id="图层_2" data-name="图层 2"><g id="图层_1-2" data-name="图层 1"><path d="M0,3.44c1.47.34,1.83.64,1.83,1.17,0,.33-.18.51-.36.51s-.18,0-.27-.27A2.13,2.13,0,0,0,0,3.56ZM3.45,2.33,2.13,7A5.41,5.41,0,0,0,2,8.48a10.27,10.27,0,0,0,.16,1.71,2.32,2.32,0,0,1,0,.24c0,.39-.19.58-.44.58s-.4-.17-.4-.5a2.14,2.14,0,0,1,0-.32,8.55,8.55,0,0,0,.22-1.54c0-.53-.18-.64-.51-.71a4.72,4.72,0,0,0-1-.11V7.64c1.19,0,1.48-.11,1.69-.74L3.29,2.25ZM.68.78c1.44.36,2,.64,2,1.16,0,.28-.15.58-.34.58s-.2,0-.32-.35A2.54,2.54,0,0,0,.62.9Zm10.5,9.35a1.09,1.09,0,0,0-1,.44.17.17,0,0,1-.12.06.21.21,0,0,1-.12-.05A7.67,7.67,0,0,1,6.82,6.73c-.32.29-.67.57-1.05.89v2.57L7.35,9.5l.09.18a8.25,8.25,0,0,0-2.12,1.44c0,.05-.05.06-.08.06a.08.08,0,0,1-.07,0l-.35-.54c.39-.23.43-.32.43-.49V8A20,20,0,0,1,2.54,9.88l-.09-.15A23.85,23.85,0,0,0,6.74,6l.62.46,0,0s0,0-.08,0a.75.75,0,0,0-.33.1A7.12,7.12,0,0,0,7.83,8,13.8,13.8,0,0,0,9.45,6.64l.48.48a.15.15,0,0,1,0,.09s0,.07-.1.07-.2,0-1.91.89A4.88,4.88,0,0,0,11.18,10ZM6.06,2.82c0,.05.07.08.07.11S6.1,3,6,3a.91.91,0,0,0-.49.26C4.71,4,4.16,4.46,3.36,5.12L3.24,5A23.79,23.79,0,0,0,5.47,2.33Zm4.78-1c.09.06.12.11.12.15S10.9,2,10.79,2H4.39a2.53,2.53,0,0,0-.8.13l-.34-.44c.3,0,.6,0,.88,0H9.65l.47-.63ZM7.65,4.11C9.19,5,9.32,5.34,9.32,5.66s-.13.49-.37.49S8.73,6,8.69,5.82a1.11,1.11,0,0,0-.1-.35L7.3,5.61A6.49,6.49,0,0,0,5,6.12l0,0a.12.12,0,0,1-.11-.08l-.35-.6a1.38,1.38,0,0,0,1-.53A15.35,15.35,0,0,0,6.87,3l.54.47c.06,0,.09.06.09.09s0,0-.12.07A1.38,1.38,0,0,0,6.85,4c-.45.39-1,.86-1.7,1.43l3.32-.2a3.88,3.88,0,0,0-.89-1ZM6,.1C7.12.48,7.58.79,7.58,1.26c0,.28-.17.48-.35.48S7,1.66,6.87,1.3A2.48,2.48,0,0,0,6,.24ZM8.29,2.43c.86.45,2.12,1.23,2.12,2,0,.31-.2.47-.32.47s-.21,0-.35-.41A4.16,4.16,0,0,0,8.19,2.58Z"/><path d="M12,3.44c1.47.34,1.83.64,1.83,1.17,0,.33-.18.51-.36.51s-.18,0-.27-.27A2.13,2.13,0,0,0,12,3.56Zm3.43-1.11L14.13,7A5.41,5.41,0,0,0,14,8.48a10.27,10.27,0,0,0,.16,1.71,2.32,2.32,0,0,1,0,.24c0,.39-.19.58-.44.58s-.4-.17-.4-.5a2.14,2.14,0,0,1,0-.32,8.55,8.55,0,0,0,.22-1.54c0-.53-.18-.64-.51-.71a4.72,4.72,0,0,0-1-.11V7.64c1.19,0,1.48-.11,1.69-.74l1.59-4.65ZM12.68.78c1.44.36,2,.64,2,1.16,0,.28-.15.58-.34.58s-.2,0-.32-.35A2.54,2.54,0,0,0,12.62.9Zm10.5,9.35a1.09,1.09,0,0,0-1,.44.17.17,0,0,1-.12.06.21.21,0,0,1-.12-.05,7.67,7.67,0,0,1-3.09-3.85c-.32.29-.67.57-1.05.89v2.57l1.58-.69.09.18a8.25,8.25,0,0,0-2.12,1.44c0,.05-.05.06-.08.06a.08.08,0,0,1-.07,0l-.35-.54c.39-.23.43-.32.43-.49V8a20,20,0,0,1-2.71,1.84l-.09-.15A23.85,23.85,0,0,0,18.74,6l.62.46s0,0,0,0,0,0-.08,0a.75.75,0,0,0-.33.1A7.12,7.12,0,0,0,19.83,8a13.8,13.8,0,0,0,1.62-1.37l.48.48a.15.15,0,0,1,0,.09s0,.07-.1.07-.2,0-1.91.89A4.88,4.88,0,0,0,23.18,10ZM18.06,2.82c0,.05.07.08.07.11s0,0-.09,0a.91.91,0,0,0-.49.26c-.84.75-1.39,1.23-2.19,1.89L15.24,5a23.79,23.79,0,0,0,2.23-2.66Zm4.78-1c.09.06.12.11.12.15S22.9,2,22.79,2h-6.4a2.53,2.53,0,0,0-.8.13l-.34-.44c.3,0,.6,0,.88,0h5.52l.47-.63ZM19.65,4.11c1.54.86,1.67,1.23,1.67,1.55s-.13.49-.37.49-.22-.13-.26-.33a1.11,1.11,0,0,0-.1-.35l-1.29.14A6.49,6.49,0,0,0,17,6.12l0,0a.12.12,0,0,1-.11-.08l-.35-.6a1.38,1.38,0,0,0,.95-.53A15.35,15.35,0,0,0,18.87,3l.54.47c.06,0,.09.06.09.09s0,0-.12.07a1.38,1.38,0,0,0-.53.36c-.45.39-1,.86-1.7,1.43l3.32-.2a3.88,3.88,0,0,0-.89-1ZM18,.1c1.11.38,1.57.69,1.57,1.16,0,.28-.17.48-.35.48s-.26-.08-.36-.44A2.48,2.48,0,0,0,18,.24Zm2.28,2.33c.86.45,2.12,1.23,2.12,2,0,.31-.2.47-.32.47s-.21,0-.35-.41a4.16,4.16,0,0,0-1.55-1.93Z"/><path d="M35.29,9.79a1.54,1.54,0,0,0-1.43.61.07.07,0,0,1-.06,0h-.07a7.15,7.15,0,0,1-4.51-5H27.3v4.61L29.76,9l.06.15c-2.14,1.23-2.74,1.67-2.89,1.95-.05.07-.08.11-.11.11s-.06,0-.1-.05l-.56-.51a1.17,1.17,0,0,0,.59-1V5.46H25a2.28,2.28,0,0,0-.8.13l-.34-.44c.3,0,.6,0,.88,0h2V1.75c0-.49,0-1.26-.05-1.7l1,.53c.08,0,.11.06.11.08s0,.06-.09.11l-.41.3V5.19h6.21l.55-.76.9.87q.09.09.09.12s0,0-.12,0H29.47c1.16,2.66,3,4.18,5.82,4.18ZM33.13,1.33s.07.07.07.1-.05,0-.13.05A2.13,2.13,0,0,0,32,2c-1,.67-2.46,1.64-3.74,2.42l-.1-.14A27.24,27.24,0,0,0,32.35.64Z"/><path d="M36.12,3.09c1.13.4,1.7.64,1.7,1.28,0,.26-.12.49-.28.49s-.21-.05-.34-.37a2.53,2.53,0,0,0-1.14-1.25Zm3.27-.32-1.3,4a4.83,4.83,0,0,0-.3,1.63,5.75,5.75,0,0,0,.08,1,6.4,6.4,0,0,1,.1.9c0,.45-.14.61-.45.61s-.36-.21-.36-.57a2.35,2.35,0,0,1,0-.35,6.92,6.92,0,0,0,.17-1.32c0-.47,0-1-1.27-1.2l0-.18a6.09,6.09,0,0,0,.65,0c.54,0,.67-.19,1-.9l1.5-3.69ZM37.25.52c1.11.38,1.62.68,1.62,1.23,0,.27-.14.5-.27.5s-.2-.07-.31-.29A3.13,3.13,0,0,0,37.18.64Zm9.63,9.12c.09.1.14.16.14.19s-.07.06-.2.06H39.57a2.8,2.8,0,0,0-.8.12l-.34-.43c.29,0,.6.05.88.05h3.15V2.08H40.8a2.94,2.94,0,0,0-.81.11l-.33-.43c.29,0,.6.05.87.05H45l.51-.68.69.68c.08.09.13.15.13.19s-.07.08-.21.08H43V9.63h2.64L46.24,9Z"/><path d="M52.11,7.24s.06.06.06.09,0,0-.08.06c-.25.06-.3.08-.4.18a19.61,19.61,0,0,1-3.49,3.14l-.13-.16a15.64,15.64,0,0,0,3.32-3.92Zm6.86-5c.08.07.1.11.1.13s0,.05-.13.05H52.41l-1.9,3.22h3.16V5c0-.8,0-1.13,0-1.46l.94.39c.06,0,.09.05.09.09s0,.06-.07.09l-.34.24V5.67h2.33L57.13,5l.8.79c.06.06.08.1.08.12s0,0-.12,0H54.26v4c0,.83-.16,1-1,1.33h-.05s-.06,0-.07-.09c-.06-.38-.24-.54-1.43-.87l0-.14a11.18,11.18,0,0,0,1.5.2c.38,0,.4-.13.4-.38V6H50.58l-.28.26s-.08.09-.12.09a.13.13,0,0,1-.07,0l-.65-.65c.55-.24.59-.26.82-.62.47-.72,1-1.64,1.52-2.54H49.44a2.28,2.28,0,0,0-.8.13l-.34-.45c.3,0,.6.05.88.05H52c.44-.78.84-1.53,1.1-2.11l.73.57s.06.06.06.08,0,.05-.08.07L53.29,1l-.72,1.22h5l.55-.75ZM55.34,6.92c2.36,1.4,3.15,2.1,3.15,2.89,0,.3-.14.52-.33.52s-.18-.08-.42-.58a8.08,8.08,0,0,0-2.5-2.66Z"/><path d="M71.21,10.34a1.39,1.39,0,0,0-.9.59c-.06.1-.09.12-.2.12-1.92,0-3.78-.08-5.06-.16a2.8,2.8,0,0,1-2.74-1.74c-.08-.19-.14-.3-.22-.3-.24,0-1,1.22-1.25,1.87,0,.07-.05.1-.08.1l-.1,0L60,10.48l1.86-1.82V5H61a1.83,1.83,0,0,0-.64.1L60,4.69l.83,0h.88L62,4.19l.75.56c.05,0,.09.07.09.11s0,.06-.1.09l-.33.21V8.61c0,.78.94,1.75,2.7,1.8h1.22c1.4,0,2.86-.06,4.84-.24ZM61,.79c.47.25,1.58,1,1.58,1.63,0,.35-.26.64-.4.64S62,3,61.94,2.63a3.47,3.47,0,0,0-1-1.74Zm5.75,1.92s.06.07.06.1,0,.06-.1.06H65.24V4.68L66.62,4l.06.15-1.44,1V7.94c0,.84-.08,1-.74,1.31l-.06,0s-.06,0-.09-.11c-.12-.39-.37-.55-1.11-.75V8.26a5.93,5.93,0,0,0,1.05.17c.36,0,.4-.15.4-.5V5.41a5,5,0,0,0-1.21.91s-.06.07-.1.07a.17.17,0,0,1-.11-.06l-.42-.39,1.84-1V2.87h-.46a2.28,2.28,0,0,0-.8.13l-.34-.45A6.58,6.58,0,0,0,64,2.6h.72V1.76c0-.49,0-1.27,0-1.71l.82.42s.07.05.07.08,0,.07-.29.23V2.6h.54l.4-.51ZM71,3.79c.06.06.08.1.08.13S71,4,71,4H69.55V7.09c0,.93,0,1.71,0,2.08v.09c0,.17,0,.22-.3.32a.58.58,0,0,1-.22.07c-.1,0-.12-.08-.12-.28v-.1c0-.71,0-1.52,0-2.21V4H67.65c0,3.51-.31,4.34-2.22,5.76l-.09-.15c1.8-1.64,1.8-2.52,1.8-6.17,0-.76,0-1.55,0-2.49l.64.58A10.26,10.26,0,0,0,70,.44l.57.51s.08.07.08.09,0,.05-.11.05h-.19a3,3,0,0,0-.65.12c-.58.16-1.22.34-2,.54v2H70l.36-.57Z"/><path d="M76.59,3.57s.08.06.08.09,0,0-.12.06c-.23,0-.38.21-.5.55a12.29,12.29,0,0,1-4,6L72,10.11a13.46,13.46,0,0,0,3.58-6.34H73.22a2.28,2.28,0,0,0-.8.13l-.34-.45c.3,0,.6,0,.88,0h2.51L75.83,3Zm6.56,5.87-.4,0a1,1,0,0,0-.88.33c0,.05-.06.07-.1.07a.12.12,0,0,1-.09-.05C79.56,7.82,78.55,6,77.77,2.25V9.82c0,.94-.13,1.23-.88,1.45a.07.07,0,0,1-.06,0s-.06,0-.07-.08c0-.34-.26-.57-1.52-.88l0-.21a9.31,9.31,0,0,0,1.53.24c.4,0,.42-.17.42-.53V1.75c0-.49,0-1.31,0-1.75l1,.49s.06.05.06.06,0,0-.06.07l-.37.24v.6a23.94,23.94,0,0,0,1,3.31,22.11,22.11,0,0,0,2.35-2.64l.74.68c.07.06.09.09.09.13s0,0-.21,0a.81.81,0,0,0-.57.21L78.92,5c1.24,2.84,2.67,3.95,4.23,4.26Z"/></g></g></svg>